<?xml version="1.0" encoding="UTF-8" standalone="no"?>
<svg xmlns="http://www.w3.org/2000/svg" width="120" height="120" version="1.0">
  <path fill="none" stroke="#a30075" stroke-linejoin="round" stroke-width="6" d="M115.42763 60.56681c0 30.01875-24.356998 54.375-54.374998 54.375-30.018 0-54.3750004-24.35625-54.3750004-54.375s24.3570004-54.375 54.3750004-54.375c30.018 0 54.374998 24.35625 54.374998 54.375z"/>
  <path fill="#a30075" stroke="#a30075" stroke-width="3.67575002" d="M61 20.875c-4.70265 0-8.499999 3.402125-8.5 7.625 0 3.5898 2.749049 6.591977 6.46875 7.40625v3l-12.03125-.125v3.625H59l-1.125 47.75c-8.5155-.67425-16.139724-3.844325-21.625-8.5625l3.21875-2.8125L26.84375 69.5l2.59375 18.0625L34.25 83.375c6.219 6.9075 14.696498 11.019998 23.59375 11.875l.5625 5.1875h5.78125L64.75 95.25c5.493-.510525 10.947299-2.276948 15.9375-5.40625 2.953125-1.852575 5.433828-3.885074 7.59375-6.28125l4.3125 4L95.75 69.75l-12.625 9.03125 3.125 2.875c-5.46975 4.6767-13.014003 7.825024-21.46875 8.5l-1.15625-47.75h12.03125v-3.625l-12.375.0625V35.875c3.591-.898575 6.218748-3.8671 6.21875-7.375 0-4.2225-3.805298-7.625-8.5-7.625zm.023785 1.046357c3.639224-.101176 7.16093 2.807458 7.160931 6.586107.000002 3.678827-3.014228 6.396326-6.958501 6.396325-3.843059 0-6.954859-3.022533-7.056073-6.396324-.098181-3.272669 3.213013-6.484894 6.853643-6.586108z"/>
  <path fill="none" d="m95.763845 69.737653-3.159494 17.80917-4.331158-4.00136c-2.15997 2.396149-4.619692 4.429045-7.573041 6.281533-4.990262 3.129273-10.452065 4.898871-15.94507 5.409446l-.56129 5.211628h-5.774527l-.577418-5.211628c-8.894405-.85328-17.375116-4.962954-23.594538-11.869297l-4.80971 4.182465-2.581727-18.055054 12.628863 9.302143-3.216991 2.799803c5.485292 4.718115 13.082524 7.871768 21.597593 8.546033l1.138357-47.734914H46.950145v-3.61512l12.027606.131997v-3.005635c-3.719734-.8188-6.482363-3.824435-6.482363-7.414131 0-4.222865 3.809133-7.639815 8.511563-7.639815 4.694718 0 8.506655 3.41695 8.506655 7.639815 0 3.507851-2.638872 6.471344-6.229939 7.3699v2.955135l12.38275-.041794v3.615121H63.613569l1.162899 47.734914c8.455119-.674962 15.994503-3.804235 21.464369-8.480557l-3.10936-2.865976 12.629914-9.055563.002454.001741zM65.06991 28.50508c0-2.008516-1.813589-3.638455-4.050338-3.638455-2.235345 0-4.048935 1.630635-4.048935 3.638455 0 2.009561 1.81359 3.639152 4.048935 3.639152 2.236398 0 4.050338-1.630287 4.050338-3.639152z"/>
  <ellipse cx="160.02" cy="69.002998" fill="none" rx="11.553" ry="10.449" transform="matrix(.35059 0 0 .34828 4.9161066 4.4739326)"/>
</svg>