<?xml version="1.0" encoding="UTF-8" standalone="no"?>
<!-- Created with Inkscape (http://www.inkscape.org/) -->

<svg
   width="64"
   height="63.999996"
   viewBox="0 0 64 63.999996"
   version="1.1"
   id="svg5"
   xmlns="http://www.w3.org/2000/svg"
   xmlns:svg="http://www.w3.org/2000/svg">
  <defs
     id="defs2" />
  <g
     id="g244"
     style="display:inline">
    <g
       id="g188"
       style="display:inline">
      <g
         id="circle187">
        <path
           style="color:#000000;fill:#000000;fill-opacity:0;stroke-dasharray:4.91317, 3.68488;stroke-dashoffset:9.08936;-inkscape-stroke:none"
           d="M 60.543415,32 A 28.543415,28.543415 0 0 1 32,60.543415 28.543415,28.543415 0 0 1 3.4565849,32 28.543415,28.543415 0 0 1 32,3.4565849 28.543415,28.543415 0 0 1 60.543415,32 Z"
           id="path368" />
        <path
           style="color:#000000;fill:#80e0ff;stroke-dasharray:4.91317, 3.68488;stroke-dashoffset:9.08936;-inkscape-stroke:none"
           d="M 30.771484,1.0234375 C 28.995827,1.092486 27.224499,1.3134926 25.482422,1.6875 l 1.03125,4.8027344 c 1.460387,-0.3135313 2.952087,-0.4984229 4.449219,-0.5566407 z m 3.994141,0.097656 -0.433594,4.8945313 c 1.491808,0.1320194 2.971593,0.3912258 4.414063,0.7773437 L 40.015625,2.046875 c -1.721616,-0.4608393 -3.479237,-0.7690754 -5.25,-0.9257815 z M 21.634766,2.7773438 c -1.67809,0.5946787 -3.303467,1.334753 -4.853516,2.2109374 L 19.199219,9.265625 C 20.500484,8.5300683 21.86629,7.9075578 23.275391,7.4082031 Z M 43.804687,3.328125 41.933594,7.8710937 c 1.38238,0.5691026 2.717094,1.2590445 3.980468,2.0585938 L 48.541016,5.7792969 C 47.036786,4.8273184 45.450997,4.0058828 43.804687,3.328125 Z M 13.433594,7.1738281 C 12.010818,8.2394112 10.678247,9.4257599 9.4570313,10.720703 l 3.5742187,3.371094 c 1.026,-1.087942 2.148869,-2.088501 3.347656,-2.986328 z m 38.341797,0.953125 -3.134766,3.7812499 c 1.152681,0.955259 2.223999,2.010931 3.195312,3.148438 l 3.736329,-3.191407 C 54.416686,10.511933 53.144565,9.2616254 51.775391,8.1269531 Z M 6.90625,13.794922 C 5.8606523,15.233344 4.9378501,16.76174 4.1542969,18.361328 l 4.4121094,2.162109 C 9.223699,19.181604 10.000679,17.894452 10.880859,16.683594 Z m 51.060547,1.267578 -4.111328,2.689453 c 0.81884,1.252033 1.529634,2.576263 2.11914,3.949219 l 4.515625,-1.939453 C 59.7875,18.125054 58.940652,16.551555 57.966797,15.0625 Z M 2.6289063,22.058594 C 2.058465,23.7446 1.634017,25.480354 1.3632812,27.240234 l 4.8574219,0.746094 c 0.2272925,-1.477483 0.583195,-2.93492 1.0625,-4.351562 z m 59.1992187,1.472656 -4.726563,1.339844 c 0.407845,1.438686 0.690216,2.914884 0.84375,4.402343 l 4.888672,-0.505859 C 62.65122,26.996937 62.313607,25.243805 61.828125,23.53125 Z M 1.0097656,31.220703 c -0.0436811,1.774068 0.060155,3.555717 0.3203125,5.318359 l 4.8613281,-0.71875 C 5.9733041,34.342608 5.8849387,32.841931 5.921875,31.341797 Z M 58.085937,32 c -1.03e-4,1.3501 -0.102013,2.698472 -0.308593,4.027344 l 4.855468,0.753906 C 62.87907,35.197149 62.999877,33.597712 63,32 Z M 6.8945312,39.113281 2.1660156,40.449219 c 0.4839649,1.714106 1.1165067,3.383123 1.8886719,4.986328 L 8.4824219,43.302734 C 7.8332851,41.954967 7.3005757,40.551409 6.8945312,39.113281 Z m 50.1523438,0.201172 c -0.41699,1.434528 -0.959051,2.832601 -1.619141,4.173828 l 4.408203,2.169922 c 0.786168,-1.597404 1.432455,-3.262078 1.929688,-4.972656 z m -46.910156,6.921875 -4.1171878,2.681641 c 0.9720868,1.492083 2.0727499,2.89637 3.2832032,4.197265 l 3.5976566,-3.347656 c -1.0207,-1.096964 -1.947788,-2.278927 -2.763672,-3.53125 z M 53.75,46.408203 c -0.826699,1.24662 -1.762335,2.423013 -2.791016,3.509766 l 3.56836,3.378906 C 55.750207,52.004978 56.860283,50.608019 57.84375,49.125 Z m -38.402344,5.673828 -3.140625,3.777344 c 1.368613,1.137614 2.834487,2.155441 4.376953,3.041016 l 2.447266,-4.259766 c -1.298037,-0.745241 -2.53336,-1.6025 -3.683594,-2.558594 z m 33.142578,0.13086 c -1.157943,0.947158 -2.397982,1.795569 -3.701172,2.529296 l 2.410157,4.28125 c 1.550836,-0.873158 3.025091,-1.881266 4.402343,-3.007812 z m -26.4375,3.910156 -1.878906,4.541015 c 1.645687,0.680551 3.350872,1.217029 5.089844,1.601563 l 1.060547,-4.798828 c -1.459072,-0.322641 -2.890482,-0.772656 -4.271485,-1.34375 z m 19.703125,0.07813 c -1.385401,0.560019 -2.821582,0.999639 -4.283203,1.310547 l 1.021485,4.80664 c 1.741973,-0.370542 3.45234,-0.895047 5.103515,-1.5625 z m -12.105468,1.78125 -0.435547,4.894531 c 1.768839,0.157174 3.553113,0.164542 5.326172,0.01953 L 34.140625,58 c -1.491381,0.121974 -2.996699,0.115133 -4.490234,-0.01758 z"
           id="path369" />
      </g>
      <path
         id="path188"
         style="overflow:visible;fill:none;fill-rule:evenodd;stroke-width:5;stroke-linecap:square;stroke-dashoffset:5;stroke-opacity:0.996078;paint-order:fill markers stroke"
         d="M 0,1e-6 H 64 V 63.999999 H 0 Z" />
    </g>
  </g>
</svg>
