<?xml version="1.0" encoding="UTF-8" standalone="no"?>
<!-- Created with Inkscape (http://www.inkscape.org/) -->

<svg
   width="64"
   height="63.999996"
   viewBox="0 0 64 63.999996"
   version="1.1"
   id="svg5"
   xmlns="http://www.w3.org/2000/svg"
   xmlns:svg="http://www.w3.org/2000/svg">
  <defs
     id="defs2" />
  <g
     id="g244"
     style="display:inline">
    <g
       id="g240"
       style="display:inline">
      <path
         style="color:#000000;fill:#80e0ff;stroke-dasharray:4.93626, 2.96176;stroke-dashoffset:2.96176;-inkscape-stroke:none"
         d="M 7.4355469,0.9921875 2.5,1.0078125 2.50391,2.1699219 2.51368,3.1816406 7.4492268,3.1347656 7.4394568,2.140625 Z m 49.1289061,0 -0.0039,1.1484375 -0.0078,0.8105469 4.935547,0.046875 0.0078,-0.828125 L 61.5,1.0078125 Z m -0.06836,4.8789062 c -0.02404,0.9312897 -0.05953,1.867534 -0.101563,2.8066407 l -0.05078,1.0371094 -0.05469,1.0156252 4.927735,0.273437 0.05664,-1.0312497 0.05273,-1.0703125 v -0.00391 C 61.369218,7.9366754 61.406581,6.9708691 61.431641,6 Z M 7.5078125,6.0488281 2.5742188,6.1894531 2.5898438,6.7128906 2.6289063,7.8125 l 0.044922,1.0878906 0.052734,1.0722657 0.058594,1.0585937 0.00977,0.173828 4.9277343,-0.308594 -0.00977,-0.15625 L 7.65625,9.7148438 7.6054687,8.6757813 7.5605469,7.6230469 7.5234375,6.5546875 Z m 48.5800785,7.5839849 -0.0078,0.09961 -0.08203,0.970703 -0.08789,0.957031 -0.0918,0.941406 -0.09961,0.929688 -0.103516,0.923828 4.904297,0.558594 0.107422,-0.941406 0.101563,-0.966797 0.09766,-0.978516 0.08984,-0.992187 0.08398,-1.00586 0.0098,-0.11914 z m -48.1621098,0.166015 -4.9179687,0.41211 0.076172,0.923828 0.089844,0.992187 0.097656,0.978516 0.1015625,0.966797 0.109375,0.953125 0.023437,0.189453 L 8.40625,18.619141 8.3847656,18.447266 8.28125,17.53125 8.1816406,16.601562 8.0898438,15.660156 8.0019531,14.703125 Z m 47.3144528,7.525391 c -0.110406,0.779408 -0.231604,1.561285 -0.361328,2.34375 v -0.01172 l -0.140625,0.833984 -0.146484,0.8125 -0.146485,0.78125 4.851563,0.910157 0.150391,-0.800782 0.152343,-0.853515 0.146485,-0.859375 0.002,-0.0059 c 0.135093,-0.814853 0.262222,-1.633307 0.378906,-2.457031 z m -46.4550777,0.173828 -4.8847657,0.710937 0.072266,0.5 0.1367187,0.890625 0.1425781,0.876953 0.1484375,0.863282 0.1523438,0.853515 0.1582031,0.839844 0.03125,0.162109 4.84375,-0.951171 -0.027344,-0.142579 -0.1503907,-0.798828 -0.1464843,-0.8125 -0.140625,-0.824218 -0.1347657,-0.835938 -0.1308593,-0.851562 z m 45.0742187,7.402344 -0.0625,0.27539 -0.171875,0.736328 -0.175781,0.72461 -0.179688,0.714843 -0.185547,0.701172 -0.1875,0.689453 -0.191406,0.677735 -0.03125,0.105469 4.738281,1.388671 0.03711,-0.128906 0.205078,-0.722656 0.199219,-0.734375 0.195312,-0.746094 0.191406,-0.757812 0.1875,-0.769532 0.181641,-0.779296 0.06641,-0.296875 z m -43.677734,0.179687 -4.8164066,1.078125 0.025391,0.117188 0.1816406,0.779296 0.1875,0.769532 0.1914063,0.757812 0.1953125,0.746094 0.1992187,0.734375 0.2050781,0.722656 0.089844,0.304688 4.7363284,-1.386719 -0.08203,-0.283203 -0.191406,-0.677735 -0.1875,-0.689453 -0.185547,-0.701172 -0.179688,-0.714843 -0.175781,-0.72461 -0.171875,-0.736328 z m 41.636718,7.189453 c -0.172726,0.520817 -0.3581,1.046869 -0.550781,1.576172 -0.211423,0.578955 -0.431305,1.154363 -0.660156,1.724609 l -0.226563,0.554688 -0.228515,0.542969 -0.0059,0.01367 4.53125,1.960937 0.01563,-0.03711 0.248047,-0.591797 0.244141,-0.597656 0.002,-0.0059 c 0.249456,-0.62159 0.489701,-1.247638 0.71875,-1.875 v -0.002 c 0.20395,-0.56026 0.405375,-1.129204 0.597656,-1.708984 z m -39.582031,0.166016 -4.6777343,1.572265 0.076172,0.22461 0.2265625,0.65039 0.00195,0.0078 c 0.2254729,0.637894 0.4590985,1.271988 0.7050782,1.904297 0.2359557,0.606534 0.4821303,1.210157 0.7382812,1.810547 l 0.00391,0.0059 0.085937,0.201172 4.5292964,-1.962891 -0.07813,-0.18164 -0.0059,-0.01172 c -0.232732,-0.545865 -0.456043,-1.095585 -0.671875,-1.650391 -0.226651,-0.582622 -0.445327,-1.170514 -0.654297,-1.761718 l 0.0059,0.01172 -0.216796,-0.621093 z m 36.726563,6.822265 c -0.307297,0.621171 -0.629695,1.234861 -0.964844,1.839844 -0.321222,0.579692 -0.654916,1.15052 -1.001953,1.710938 l -0.253907,0.404297 -0.06445,0.09961 4.148438,2.675781 0.08008,-0.125 0.283203,-0.449219 0.0039,-0.0078 c 0.3909,-0.631249 0.764917,-1.269716 1.123047,-1.916016 0.372912,-0.673149 0.729717,-1.354488 1.070313,-2.042968 z m -33.847657,0.152344 -4.412109,2.212891 0.160156,0.322265 0.0039,0.0059 c 0.348192,0.684149 0.71191,1.361178 1.09375,2.03125 v 0.002 h 0.002 c 0.415056,0.727261 0.851129,1.450997 1.316406,2.166016 l 4.136719,-2.691407 c -0.40412,-0.621036 -0.791,-1.262875 -1.166016,-1.919922 v -0.002 c -0.339171,-0.59525 -0.666005,-1.198893 -0.978516,-1.8125 l -0.0059,-0.01172 z m 29.97461,6.181641 c -0.847538,1.120763 -1.764267,2.179216 -2.75,3.154297 l -0.269532,0.261718 3.447266,3.535157 0.289063,-0.28125 0.0059,-0.0078 c 1.167167,-1.154553 2.236168,-2.391371 3.214844,-3.685547 z m -26.072266,0.140625 -3.93164,2.986328 0.05664,0.07422 0.0039,0.0059 c 1.055414,1.369769 2.215853,2.681995 3.496094,3.894531 l 3.394531,-3.583984 c -1.0651,-1.008773 -2.052772,-2.122987 -2.96875,-3.310547 z m 21.035156,5.011719 c -1.17644,0.898871 -2.425212,1.666039 -3.726562,2.246093 L 38.335937,61.5 c 1.705572,-0.760229 3.275688,-1.73392 4.712891,-2.832031 z m -15.970703,0.101562 -2.970703,3.941406 c 1.447757,1.090575 3.030225,2.053007 4.744141,2.796875 l 1.964843,-4.529297 c -1.305882,-0.566774 -2.558843,-1.32053 -3.738281,-2.208984 z m 9.878906,2.960938 c -0.879093,0.210066 -1.721468,0.300764 -2.476562,0.236328 h -0.0059 l -0.0059,-0.002 c -0.416965,-0.03357 -0.84704,-0.100718 -1.285156,-0.199219 l -1.083984,4.816406 c 0.630638,0.141785 1.286116,0.247763 1.960937,0.302734 1.432031,0.122203 2.793909,-0.05504 4.042969,-0.353515 z"
         id="path238" />
      <path
         d="m 14.666665,30.291665 -2.666666,-2.66666 2.666666,-2.66667 h 32.000002 c 0,0 2.666667,2.66667 2.666667,2.66667 l 2.666667,-2.66667 v 5.33333 l -2.666667,-2.66666 -2.666667,2.66666 z"
         stroke-width="5"
         stroke="#000000"
         fill="#000000"
         id="path239"
         style="fill:#80e0ff;fill-opacity:1;stroke:none;stroke-width:6.82655;stroke-miterlimit:4;stroke-dasharray:none" />
      <path
         id="path240"
         style="overflow:visible;fill:none;fill-rule:evenodd;stroke-width:5;stroke-linecap:square;stroke-dashoffset:5;stroke-opacity:0.996078;paint-order:fill markers stroke"
         d="M 0,1e-6 H 64 V 63.999999 H 0 Z" />
    </g>
  </g>
</svg>
