<?xml version="1.0" encoding="UTF-8" standalone="no"?>
<!-- Created with Inkscape (http://www.inkscape.org/) -->

<svg
   width="64"
   height="63.999996"
   viewBox="0 0 64 63.999996"
   version="1.1"
   id="svg5"
   xmlns="http://www.w3.org/2000/svg"
   xmlns:svg="http://www.w3.org/2000/svg">
  <defs
     id="defs2" />
  <g
     id="g244"
     style="display:inline">
    <g
       id="g185"
       style="display:inline">
      <g
         id="path183">
        <path
           style="color:#000000;fill:#000000;fill-opacity:0;stroke-dasharray:4.93626, 3.45538;stroke-dashoffset:7.40439;-inkscape-stroke:none"
           d="m 59.031869,62.46735 c 0,-49.609898 -19.65954,-59.531872 -27.031859,-59.531872 -7.372332,0 -27.0318785,9.921974 -27.0318785,59.531872"
           id="path344" />
        <path
           style="color:#000000;fill:#80e0ff;stroke-dasharray:4.93626, 3.45538;stroke-dashoffset:7.40439;-inkscape-stroke:none"
           d="m 31.072266,0.50585937 c -0.677692,0.0547698 -1.335578,0.16233399 -1.96875,0.30468751 L 30.1875,5.6269531 c 0.438096,-0.098495 0.868202,-0.1676036 1.285156,-0.2011719 h 0.0059 l 0.0059,-0.00195 c 0.755105,-0.064437 1.597452,0.026255 2.476562,0.2363281 L 35.107422,0.859375 C 33.861939,0.56175254 32.503707,0.38571903 31.076172,0.50585937 Z M 25.345703,2.1132813 c -1.688481,0.7867385 -3.242732,1.781615 -4.664062,2.8964843 l 3.046875,3.8828125 C 24.895117,7.9775142 26.134329,7.1914558 27.429687,6.5878906 Z M 38.84375,2.203125 36.712891,6.6542969 c 1.293606,0.6192212 2.529352,1.4160082 3.6875,2.3398437 L 43.478516,5.1367187 C 42.065162,4.0093093 40.51932,3.0051837 38.84375,2.203125 Z M 17.875,7.5273437 c -1.214893,1.2352219 -2.317239,2.5577733 -3.322266,3.9355473 l -0.0059,0.0059 -0.08789,0.123047 4.007813,2.882812 0.07227,-0.103515 0.0098,-0.01172 c 0.875585,-1.199186 1.822875,-2.331151 2.845703,-3.371094 z m 28.388672,0.1425782 -3.541016,3.4375001 0.150391,0.154297 -0.01367,-0.01172 c 0.999426,1.044718 1.9252,2.174435 2.777344,3.367188 l 4.015625,-2.869141 C 48.675142,10.38025 47.60408,9.0675469 46.427734,7.8378906 l -0.0078,-0.00586 z M 12.449219,14.648438 c -0.464196,0.773362 -0.899888,1.556766 -1.3125,2.343749 v 0.002 c -0.276839,0.528648 -0.543248,1.061552 -0.800781,1.597656 l -0.0039,0.0059 -0.257812,0.544922 -0.05078,0.111328 4.484375,2.0625 0.03906,-0.08594 0.238281,-0.501953 0.0059,-0.01367 c 0.2315,-0.481531 0.471809,-0.958089 0.71875,-1.429688 v -0.002 c 0.374471,-0.714175 0.763708,-1.413734 1.171875,-2.09375 z m 39.201172,0.167968 -4.244141,2.521485 0.101562,0.169921 c 0.253372,0.432757 0.499505,0.871235 0.738282,1.314454 0.251255,0.466384 0.494757,0.937405 0.730468,1.414062 0.206688,0.419576 0.40335,0.830319 0.587891,1.236328 l 4.494141,-2.042969 c -0.215138,-0.473324 -0.436143,-0.930174 -0.65625,-1.376953 l -0.002,-0.002 v -0.002 C 53.140105,17.522479 52.87124,16.999177 52.591797,16.480469 52.323757,15.982932 52.046492,15.489343 51.759766,15 l -0.0039,-0.0059 z m -43.0351566,7.740235 -0.042969,0.109375 -0.00391,0.0059 c -0.2459797,0.632309 -0.4796053,1.268356 -0.7050782,1.90625 -0.2350303,0.664942 -0.4595773,1.331978 -0.6738281,2.001953 l -0.00195,0.0059 -0.2148438,0.683594 -0.042969,0.138672 4.7246097,1.433594 0.03516,-0.115235 0.201172,-0.642578 0.0039,-0.0098 v -0.002 c 0.198512,-0.620367 0.404637,-1.237214 0.621094,-1.84961 0.207318,-0.58653 0.423721,-1.169958 0.648438,-1.748047 l 0.0059,-0.01367 0.03711,-0.0918 z m 46.8457026,0.195312 -4.609375,1.765625 0.199219,0.519531 0.21875,0.587891 0.214844,0.597656 0.210937,0.609375 0.212891,0.632813 c 0.172039,0.522921 0.336165,1.037438 0.488281,1.544922 L 57.125,27.591797 C 56.952601,27.016648 56.772904,26.456466 56.591797,25.90625 l -0.002,-0.0078 -0.22461,-0.664062 -0.228515,-0.65625 -0.230469,-0.646484 -0.236328,-0.634766 z m -49.4941401,8.072266 -0.015625,0.06055 -0.1914063,0.757812 -0.1875,0.769531 -0.1816406,0.78125 -0.1777344,0.791016 -0.171875,0.804687 -0.1679687,0.816407 -0.035156,0.18164 4.84375,0.951172 0.03125,-0.160156 0.1582032,-0.773438 0.1640619,-0.761718 0.167969,-0.75 0.171875,-0.738282 0.175781,-0.724609 0.179688,-0.712891 0.01172,-0.04102 z m 52.1171871,0.199218 -4.785156,1.208985 0.150391,0.597656 0.175781,0.724609 0.171875,0.738282 0.167969,0.75 0.164062,0.761718 0.158203,0.773438 0.06836,0.341797 4.84375,-0.953125 -0.07227,-0.361328 -0.167969,-0.816407 -0.171875,-0.804687 -0.177734,-0.791016 -0.181641,-0.78125 -0.1875,-0.769531 z M 4.2089844,39.259766 c -0.1332109,0.803875 -0.254235,1.602892 -0.3671875,2.398437 v 0.0059 l -0.125,0.91211 -0.1210938,0.925781 -0.089844,0.75 4.9003906,0.595703 0.087891,-0.730469 0.1152344,-0.888671 0.1210938,-0.886719 v 0.01172 C 8.8396479,41.584547 8.952997,40.821504 9.078125,40.066406 Z m 55.6132816,0.189453 -4.873047,0.789062 0.06445,0.400391 0.130859,0.849609 0.125,0.863281 0.121094,0.876954 0.115234,0.888671 0.109375,0.894532 4.904297,-0.558594 -0.002,-0.0098 -0.113281,-0.941406 -0.121094,-0.925781 -0.125,-0.916016 -0.130859,-0.902344 -0.136719,-0.888671 z m -56.6855472,8.30664 c -0.082251,0.872792 -0.1512671,1.738894 -0.2148438,2.59961 v 0.0059 l -0.072266,1.029297 -0.064453,1.044922 -0.019531,0.33789 4.9296875,0.273438 0.017578,-0.320313 0.0625,-1.011718 0.070312,-0.996094 v -0.0098 c 0.06192,-0.837751 0.1275277,-1.667318 0.2050788,-2.490241 z m 57.7441402,0.189453 -4.916015,0.449219 0.0332,0.369141 0.08203,0.970703 0.07422,0.982422 0.07031,0.998047 0.0625,1.011718 0.0293,0.503907 4.927735,-0.273438 -0.0293,-0.521484 -0.06445,-1.044922 -0.07227,-1.033203 L 61,49.339844 60.91602,48.333984 Z m -58.2753902,8.328125 -0.015625,0.480469 -0.033203,1.115235 -0.023437,1.128906 -0.019531,1.142578 -0.00977,1.132812 4.9355468,0.04492 0.011719,-1.117187 0.017578,-1.109375 0.023437,-1.097656 0.03125,-1.082032 0.015625,-0.464843 z m 58.7949222,0.183594 -4.933594,0.175781 0.0098,0.279297 0.03125,1.082032 0.02344,1.097656 0.01758,1.109375 0.01172,1.126953 v 0.160156 l 4.935547,-0.01563 V 61.29687 l -0.0098,-1.15625 -0.01953,-1.142578 -0.02344,-1.128906 -0.0332,-1.115235 z"
           id="path345" />
      </g>
      <path
         d="m 27.087261,50.610952 v -4.962921 l 2.456369,-2.48146 V 15.870508 L 32,13.389048 l 2.45637,2.48146 v 27.296063 l 2.456369,2.48146 v 4.962921 L 32,45.648031 Z"
         stroke-width="5"
         stroke="#000000"
         fill="#ffff80"
         id="path184"
         style="display:inline;fill:#80e0ff;fill-opacity:1;stroke:none;stroke-width:4.92477;stroke-miterlimit:4;stroke-dasharray:none" />
      <path
         id="path185"
         style="overflow:visible;fill:none;fill-rule:evenodd;stroke-width:5;stroke-linecap:square;stroke-dashoffset:5;stroke-opacity:0.996078;paint-order:fill markers stroke"
         d="M 0,1e-6 H 64 V 63.999999 H 0 Z" />
    </g>
  </g>
</svg>
