<?xml version="1.0" encoding="UTF-8" standalone="no"?>
<!-- Created with Inkscape (http://www.inkscape.org/) -->

<svg
   width="64"
   height="63.999996"
   viewBox="0 0 64 63.999996"
   version="1.1"
   id="svg5"
   xmlns="http://www.w3.org/2000/svg"
   xmlns:svg="http://www.w3.org/2000/svg">
  <defs
     id="defs2" />
  <g
     id="g244"
     style="display:inline">
    <g
       id="g196"
       style="display:inline">
      <g
         id="path194">
        <path
           style="color:#000000;fill:#000000;fill-opacity:0;-inkscape-stroke:none"
           d="m 59.031869,62.46735 c 0,-49.609898 -19.65954,-59.531872 -27.031859,-59.531872 -7.372332,0 -27.0318785,9.921974 -27.0318785,59.531872"
           id="path362" />
        <path
           style="color:#000000;fill:#80e0ff;-inkscape-stroke:none"
           d="m 32,0.46679688 c -9.586793,0 -29.5,11.73810112 -29.5,62.00000012 H 7.4355469 C 7.4355469,13.508999 26.842144,5.4042969 32,5.4042969 c 5.157839,0 24.564453,8.1047021 24.564453,57.0625001 H 61.5 C 61.5,12.204898 41.586784,0.46679688 32,0.46679688 Z"
           id="path363" />
      </g>
      <path
         d="m 27.087261,50.610952 v -4.962921 l 2.456369,-2.48146 V 15.870508 L 32,13.389048 l 2.45637,2.48146 v 27.296063 l 2.456369,2.48146 v 4.962921 L 32,45.648031 Z"
         stroke-width="5"
         stroke="#000000"
         fill="#ffff80"
         id="path195"
         style="display:inline;fill:#80e0ff;fill-opacity:1;stroke:none;stroke-width:4.92477;stroke-miterlimit:4;stroke-dasharray:none" />
      <path
         id="path196"
         style="overflow:visible;fill:none;fill-rule:evenodd;stroke-width:5;stroke-linecap:square;stroke-dashoffset:5;stroke-opacity:0.996078;paint-order:fill markers stroke"
         d="M 0,1e-6 H 64 V 63.999999 H 0 Z" />
    </g>
  </g>
</svg>
