<?xml version="1.0" encoding="UTF-8" standalone="no"?>
<!-- Created with Inkscape (http://www.inkscape.org/) -->

<svg
   width="64"
   height="63.999996"
   viewBox="0 0 64 63.999996"
   version="1.1"
   id="svg5"
   xmlns="http://www.w3.org/2000/svg"
   xmlns:svg="http://www.w3.org/2000/svg">
  <defs
     id="defs2" />
  <g
     id="g244"
     style="display:inline">
    <g
       id="g119"
       transform="translate(-64.019531)"
       style="display:inline">
      <path
         style="color:#000000;display:inline;fill:#80e0ff;-inkscape-stroke:none"
         d="m 96.019531,1 c -17.091713,0 -31,13.908287 -31,31 0,17.091713 13.908287,31 31,31 17.091709,0 30.999999,-13.908287 30.999999,-31 0,-17.091713 -13.90829,-31 -30.999999,-31 z m 0,4.9140625 c 14.436439,0 26.085939,11.6494965 26.085939,26.0859375 0,14.436441 -11.6495,26.085937 -26.085939,26.085937 C 81.58309,58.085937 69.933594,46.436441 69.933594,32 c 0,-14.436441 11.649496,-26.0859375 26.085937,-26.0859375 z"
         id="path72" />
      <path
         id="path118"
         style="overflow:visible;fill:#80e0ff;fill-opacity:1;fill-rule:evenodd;stroke-width:2;stroke-linecap:round;paint-order:markers stroke fill;stop-color:#000000"
         d="M 94.517578,3.9804688 V 30.498047 H 68 v 3.003906 h 26.517578 v 26.517578 h 3.003906 V 33.501953 H 124.03906 V 30.498047 H 97.521484 V 3.9804688 Z" />
      <path
         id="path119"
         style="overflow:visible;fill:none;fill-rule:evenodd;stroke-width:5;stroke-linecap:square;stroke-dashoffset:5;stroke-opacity:0.996078;paint-order:fill markers stroke"
         d="M 0,1e-6 H 64 V 63.999999 H 0 Z"
         transform="translate(64.019531)" />
    </g>
  </g>
</svg>
