<?xml version="1.0" encoding="UTF-8" standalone="no"?>
<!-- Created with Inkscape (http://www.inkscape.org/) -->

<svg
   width="64"
   height="63.999996"
   viewBox="0 0 64 63.999996"
   version="1.1"
   id="svg5"
   xmlns="http://www.w3.org/2000/svg"
   xmlns:svg="http://www.w3.org/2000/svg">
  <defs
     id="defs2" />
  <g
     id="g244"
     style="display:inline">
    <g
       id="g129"
       style="display:inline">
      <path
         style="color:#000000;display:inline;fill:#ffff80;stroke-dasharray:4.91165, 2.94699;stroke-dashoffset:6.87631;-inkscape-stroke:none"
         d="m 30.839844,1.03125 -0.03516,0.00195 h -0.01172 c -1.827134,0.1006014 -3.65546,0.4255619 -5.423823,1.0058625 l 1.53125,4.6660156 C 28.229843,6.2688091 29.635918,6.0160445 31.0625,5.9375 Z m 3.289062,0.072266 -0.46875,4.8886719 c 1.195527,0.1148445 2.372518,0.3593755 3.498047,0.7324219 6.02e-4,1.995e-4 0.0014,-1.996e-4 0.002,0 l 0.283203,0.097656 0.279297,0.1015625 0.04883,0.019531 1.785157,-4.5761719 -0.0957,-0.037109 -0.375,-0.1367187 L 38.71875,2.0664063 38.707031,2.0625 C 37.215894,1.568068 35.676782,1.2522073 34.128906,1.103516 Z M 22.246094,3.3808598 22.007812,3.5117192 21.664062,3.712891 21.322266,3.9218754 20.986328,4.1386723 20.65625,4.3632816 20.330078,4.5957035 20.009766,4.837891 l -0.3125,0.25 -0.308594,0.2578125 -0.302735,0.265625 -0.294921,0.2753906 -0.28711,0.2832032 -0.28125,0.2910156 -0.273437,0.3007812 -0.189453,0.21875 3.716796,3.2089839 0.144532,-0.166015 0.183593,-0.201172 0.1875,-0.1953125 L 22.1875,9.4375 22.386719,9.25 22.591797,9.0703125 22.802734,8.8925781 23.019531,8.7207031 23.240234,8.5527344 23.46875,8.390625 23.701172,8.2324219 23.9375,8.0800781 24.179687,7.9316406 24.425781,7.7871094 24.615234,7.6835937 Z m 20.339843,0.484375 -2.566406,4.1875 0.04297,0.027344 0.236328,0.1523438 0.232422,0.1582031 0.228516,0.1621094 0.220703,0.1679687 0.216797,0.171875 0.210937,0.1777344 L 41.613281,9.25 41.8125,9.4375 l 0.195312,0.1894531 0.1875,0.1953125 0.183594,0.2011724 0.175781,0.203125 0.169922,0.208984 0.164063,0.214844 0.0293,0.04101 3.978515,-2.8828123 -0.07031,-0.097656 -0.25,-0.3242188 L 46.318359,7.0703125 46.050781,6.7617187 45.777344,6.4609375 45.496094,6.1699219 45.208984,5.8867187 44.914062,5.6113281 44.611328,5.3457031 44.302734,5.0878906 l -0.3125,-0.25 L 43.669922,4.5957031 43.34375,4.3632812 43.013672,4.1386719 42.677734,3.921875 Z M 15.800781,9.9609375 c -0.200235,0.4076905 -0.376503,0.8192775 -0.533203,1.2343755 -0.541207,1.433934 -0.840863,2.926752 -0.9375,4.412109 l 4.902344,0.320312 c 0.06771,-1.040801 0.277569,-2.059468 0.630859,-2.996093 v -0.002 C 19.968205,12.651899 20.082678,12.382166 20.208984,12.125 Z M 48.615234,10.896484 44.0625,12.736328 c 0.376243,0.931393 0.605427,1.949926 0.691406,2.996094 0.02474,0.301768 0.03906,0.602072 0.04102,0.898437 l 4.910156,-0.0332 c -0.0028,-0.425965 -0.02236,-0.847481 -0.05664,-1.265625 v -0.002 c -0.122969,-1.496247 -0.45309,-2.997517 -1.033203,-4.433594 z m -34.785156,3.650391 c -0.470933,0.08328 -0.935181,0.188254 -1.390625,0.314453 -1.438672,0.398443 -2.8174239,1.01875 -4.0742186,1.853516 l 2.7167966,4.091797 C 11.891253,20.269153 12.799183,19.859033 13.75,19.595703 h 0.002 v -0.002 c 0.310398,-0.08601 0.621947,-0.155827 0.933594,-0.210938 z m 36.701172,0.06836 -0.972656,4.814453 c 0.976329,0.197418 1.917525,0.539643 2.767578,1.015625 l 0.002,0.002 c 0.273413,0.152918 0.538923,0.317714 0.792969,0.496093 l 2.822265,-4.019531 C 55.54988,16.647544 55.143654,16.393433 54.726562,16.160156 53.409278,15.42255 51.98849,14.909893 50.53125,14.615234 Z M 5.6933594,19 l -0.082031,0.08594 -0.265625,0.302735 -0.2578125,0.308594 -0.25,0.3125 -0.2421875,0.320312 -0.2324219,0.326172 -0.2246093,0.330078 -0.2167969,0.335938 -0.2011719,0.328125 -0.00781,0.01367 C 3.5075889,22.00828 3.3147139,22.358058 3.1347684,22.712893 2.9535754,23.070188 2.7852706,23.43294 2.6289091,23.79883 l -0.00586,0.01172 -0.019531,0.04883 4.5371094,1.880859 0.00391,-0.01172 0.00977,-0.02148 0.00195,-0.0039 C 7.2683617,25.442253 7.3883487,25.18457 7.515625,24.933594 7.646177,24.676158 7.7852817,24.425074 7.9316406,24.179687 L 8.0800781,23.9375 8.2324219,23.701172 8.390625,23.46875 8.5527344,23.240234 8.7207031,23.019531 8.8925781,22.802734 9.0703125,22.591797 9.25,22.386719 9.287109,22.345699 Z m 52.8632816,0.277344 -3.681641,3.25 0.05469,0.06445 0.177735,0.210937 0.171875,0.216797 0.167969,0.220703 0.162109,0.228516 0.158203,0.232422 0.152344,0.236328 0.148437,0.242187 c 0.146359,0.245387 0.285464,0.496471 0.416016,0.753907 0.127665,0.251743 0.24892,0.509787 0.361328,0.771484 l 0.113281,0.273438 4.574219,-1.78711 -0.0098,-0.02539 -0.146484,-0.355469 -0.0059,-0.01172 c -0.156362,-0.36589 -0.324667,-0.728642 -0.50586,-1.085937 -0.179945,-0.354835 -0.37282,-0.704613 -0.578125,-1.048829 l -0.0078,-0.01367 -0.201172,-0.328125 -0.216797,-0.335938 -0.224609,-0.330078 -0.232422,-0.326172 -0.242188,-0.320312 -0.25,-0.3125 -0.257812,-0.308594 z m -56.9863285,7.757812 -0.041016,0.173828 -0.00195,0.01172 c -0.3931005,1.744979 -0.56367845,3.532827 -0.5195312,5.3125 l 4.9101562,-0.123047 c -0.034297,-1.382602 0.09821,-2.767991 0.4003907,-4.109375 l 0.033203,-0.136719 z M 62.505859,27.375 57.707031,28.423828 c 0.299125,1.367524 0.419827,2.786389 0.369141,4.203125 l -0.002,0.04102 4.908203,0.222656 0.002,-0.07617 0.002,-0.01172 c 0.06481,-1.811532 -0.08913,-3.638606 -0.480469,-5.427734 z m -56.3320309,7.599609 -4.8378906,0.853516 0.027344,0.15625 0.00195,0.0098 c 0.1217997,0.654331 0.2753889,1.305401 0.4609375,1.949218 0.183699,0.63735 0.4004552,1.26962 0.6503906,1.890625 v 0.002 c 0.1758247,0.434926 0.3716471,0.878614 0.5957031,1.324219 L 7.4609375,38.953125 C 7.3103091,38.653553 7.1679829,38.33432 7.03125,37.996094 V 38 C 6.8460036,37.539725 6.6840123,37.066563 6.5449219,36.583984 6.4044143,36.096451 6.2889708,35.598853 6.1953125,35.095703 Z m 51.6035159,0.265625 c -0.144313,0.748513 -0.34522,1.486776 -0.59961,2.205078 -0.132335,0.372693 -0.280048,0.737441 -0.441406,1.09375 -2.48e-4,5.48e-4 2.48e-4,0.0014 0,0.002 l -0.123047,0.263671 -0.128906,0.261719 -0.06836,0.13086 4.355468,2.269531 0.09375,-0.179688 0.175782,-0.357422 0.164062,-0.349609 0.0059,-0.01172 c 0.220693,-0.487157 0.418283,-0.982557 0.595704,-1.482422 v -0.002 c 0.336584,-0.95039 0.602155,-1.92436 0.792968,-2.914062 z m -49.0253909,5.779297 -3.84375,3.058594 0.1796875,0.224609 0.2578125,0.308594 0.265625,0.302734 0.2753906,0.294922 0.2832032,0.28711 0.2910156,0.28125 0.3007812,0.273437 0.3085938,0.267578 0.3027344,0.246094 0.013672,0.01172 c 0.6123903,0.484699 1.2665257,0.921772 1.9589844,1.302734 l 2.3691407,-4.302734 c -0.443243,-0.243854 -0.871313,-0.528208 -1.275391,-0.847656 -0.0014,-0.0011 -0.0025,-0.0028 -0.0039,-0.0039 L 10.226563,42.554687 10.023438,42.378906 9.8222656,42.195312 9.6269531,42.007812 9.4375,41.8125 9.25,41.613281 9.0703125,41.408203 8.8925781,41.197266 Z m 46.3437499,0.19336 -0.166016,0.195312 -0.179687,0.205078 -0.1875,0.199219 -0.189453,0.195312 -0.195313,0.1875 -0.199218,0.183594 -0.205079,0.175781 -0.208984,0.169922 -0.214844,0.164063 c -0.405922,0.302963 -0.834117,0.572631 -1.279297,0.802734 l 2.25586,4.363281 c 0.689194,-0.356229 1.345491,-0.767716 1.96289,-1.228515 l 0.01367,-0.01172 0.310547,-0.238281 0.316406,-0.257813 0.308594,-0.267578 0.300781,-0.273437 0.291016,-0.28125 0.283203,-0.28711 0.275391,-0.294922 0.265625,-0.302734 0.205078,-0.244141 z m -41.208984,3.228515 -1.251953,4.75 c 1.364146,0.359339 2.751553,0.515969 4.115234,0.515625 l -0.972656,-0.972656 3.480468,-0.332031 C 19.221793,48.02557 19.205168,47.640257 19.205078,47.25 v -2.455078 h -2.457031 c -0.985411,2.48e-4 -1.952079,-0.114004 -2.861328,-0.353516 z m 35.984375,0.06055 c -0.836368,0.198869 -1.718334,0.292983 -2.619141,0.292969 h -2.455078 l -0.002,2.455078 c -1.93e-4,0.477678 -0.02595,0.946201 -0.08008,1.402344 l 3.210937,0.380859 -0.673828,0.673828 c 1.242935,2e-5 2.505301,-0.130381 3.755859,-0.427734 z m -30.126953,6.232422 -4.658203,1.558594 0.03516,0.103515 0.06836,0.19336 0.002,0.0078 c 0.520525,1.450081 1.275835,2.809676 2.234375,4.017578 l 0.0098,0.01172 0.246094,0.302734 0.267578,0.308594 0.123047,0.134766 3.626953,-3.310547 -0.07813,-0.08594 -0.175782,-0.203125 -0.171875,-0.210937 -0.002,-0.0039 c -0.621351,-0.783771 -1.118544,-1.674786 -1.457031,-2.617188 -1.93e-4,-5.37e-4 1.93e-4,-0.0014 0,-0.002 l -0.04883,-0.136719 z m 24.429687,0.234375 c -0.337189,0.93101 -0.829515,1.81282 -1.445312,2.589844 l -0.173829,0.214843 -0.175781,0.203125 -0.183594,0.201172 -0.05859,0.06055 3.535156,3.410156 0.105469,-0.109375 0.273437,-0.300781 0.267578,-0.308594 0.246094,-0.302734 0.0098,-0.01172 c 0.947898,-1.194894 1.698956,-2.539412 2.21875,-3.974609 z m -20.691406,4.650391 -2.761719,4.0625 0.265625,0.179687 0.335938,0.216797 0.341796,0.208984 0.332032,0.19336 0.01367,0.0078 c 0.348795,0.197226 0.701843,0.380704 1.060546,0.552735 0.482193,0.231253 0.972858,0.441276 1.46875,0.628906 h 0.002 l 0.002,0.002 c 0.408508,0.153625 0.834092,0.299851 1.279297,0.431641 l 1.394531,-4.708985 c -0.304269,-0.09007 -0.616651,-0.197054 -0.939453,-0.318359 l -0.0039,-0.002 C 25.90575,56.934923 25.545942,56.781383 25.19541,56.613272 24.942414,56.491937 24.693503,56.36279 24.45127,56.226553 l -0.0078,-0.0039 c -0.0058,-0.0033 -0.01178,-0.0065 -0.01758,-0.0098 L 24.179687,56.068359 23.9375,55.919922 23.701172,55.767578 Z m 16.804687,0.15625 c -0.229123,0.151795 -0.467566,0.298677 -0.71289,0.4375 -0.250152,0.141448 -0.507836,0.274883 -0.769532,0.40039 -0.351835,0.168736 -0.71282,0.323194 -1.082031,0.462891 -0.364969,0.138089 -0.736955,0.261401 -1.115234,0.371094 l -0.08008,0.02148 1.314453,4.734375 0.08984,-0.02539 0.01172,-0.0039 c 0.510479,-0.14713 1.01713,-0.314557 1.517578,-0.503906 0.495893,-0.18763 0.986558,-0.397653 1.46875,-0.628906 0.358704,-0.172031 0.711752,-0.355509 1.060547,-0.552735 h 0.002 C 42.332087,60.295999 42.668538,60.090689 43,59.871094 Z M 29.734375,57.9375 29.0625,62.802734 l 0.121094,0.01758 h 0.01172 c 1.78539,0.228632 3.600072,0.241049 5.392579,0.02734 l -0.582032,-4.876953 c -1.385402,0.16517 -2.796674,0.15637 -4.185547,-0.02148 z"
         id="path123" />
      <path
         id="path129"
         style="overflow:visible;fill:none;fill-rule:evenodd;stroke-width:5;stroke-linecap:square;stroke-dashoffset:5;stroke-opacity:0.996078;paint-order:fill markers stroke"
         d="M 0,1e-6 H 64 V 63.999999 H 0 Z" />
    </g>
  </g>
</svg>
