<?xml version="1.0" encoding="UTF-8" standalone="no"?>
<!-- Created with Inkscape (http://www.inkscape.org/) -->

<svg
   width="64"
   height="63.999996"
   viewBox="0 0 64 63.999996"
   version="1.1"
   id="svg5"
   xmlns="http://www.w3.org/2000/svg"
   xmlns:svg="http://www.w3.org/2000/svg">
  <defs
     id="defs2" />
  <g
     id="g244"
     style="display:inline">
    <g
       id="g131"
       style="display:inline">
      <g
         id="path130" />
      <path
         style="color:#000000;display:inline;fill:#ffff80;stroke-dasharray:5, 3.5;stroke-dashoffset:14;-inkscape-stroke:none"
         d="m 32.371094,4.6914062 c -0.370612,-0.0083 -0.740959,-0.00489 -1.111328,0.011719 -0.370403,0.016609 -0.740673,0.046345 -1.109375,0.087891 -0.368798,0.041556 -0.735968,0.095558 -1.101563,0.1621094 l -0.01563,0.00195 -0.08594,0.017578 0.951171,4.9082032 0.07227,-0.013672 c 0.244891,-0.043963 0.49061,-0.079514 0.738281,-0.1074219 0.256779,-0.028934 0.515034,-0.050913 0.773438,-0.0625 0.258382,-0.011586 0.516776,-0.013607 0.77539,-0.00781 0.258625,0.00579 0.517927,0.019811 0.775391,0.042969 0.247696,0.022279 0.494875,0.053512 0.740234,0.091797 0.0097,0.00152 0.01958,0.00236 0.0293,0.00391 l 0.173828,0.029297 0.839844,-4.9277344 -0.216797,-0.037109 -0.01367,-0.00195 C 34.219145,4.8324265 33.849957,4.7871476 33.48047,4.7539137 c -0.369416,-0.033228 -0.738748,-0.054197 -1.109375,-0.0625 z m 6.388672,1.4570313 -2.058594,4.5546875 0.04492,0.02148 0.230468,0.111329 0.228516,0.117187 0.226563,0.121094 0.220703,0.128906 0.220703,0.132813 0.214844,0.138671 0.21289,0.144532 0.210938,0.15039 0.205078,0.15625 0.203125,0.160157 0.197265,0.167968 0.195313,0.171875 0.191406,0.177735 0.1875,0.183593 0.181641,0.1875 0.04492,0.04883 3.683593,-3.3808599 -0.08984,-0.095703 L 43.23828,9.263669 42.958983,8.9882784 42.671874,8.7226534 42.380858,8.4648409 42.083983,8.2148409 41.78125,7.9746094 41.474609,7.7421875 41.162109,7.5175781 40.845703,7.3027344 40.525391,7.0976562 40.199219,6.8984375 39.871094,6.7089844 39.537109,6.5292969 39.201172,6.3574219 38.861328,6.1933594 Z m -13.740235,0.1035156 -0.220703,0.1054688 -0.335937,0.171875 -0.333985,0.1796875 -0.328125,0.1894531 -0.326172,0.1992187 -0.320312,0.2050782 -0.316406,0.2148437 -0.3125,0.2246094 -0.306641,0.2324219 -0.302734,0.2402344 -0.296875,0.25 -0.291016,0.2578125 -0.287109,0.265625 -0.279297,0.2753906 -0.273438,0.2832031 -0.21289,0.2304688 3.683593,3.3808592 0.167969,-0.183594 0.181641,-0.1875 0.1875,-0.183593 0.191406,-0.177735 0.195312,-0.171875 0.197266,-0.167968 0.203125,-0.160157 0.205078,-0.15625 0.210938,-0.15039 0.21289,-0.144532 0.214844,-0.138671 0.220703,-0.132813 0.220703,-0.128906 0.226563,-0.121094 0.228515,-0.117187 0.164063,-0.08008 z m 20.958985,6.7890629 -4.439454,2.300781 0.05273,0.103516 0.126953,0.259765 0.123047,0.269531 0.115234,0.275391 0.111328,0.28125 0.103516,0.287109 0.09766,0.296875 0.09375,0.300782 0.08594,0.310546 0.08008,0.316407 0.07227,0.324218 0.06641,0.330079 0.05859,0.339843 0.04102,0.275391 4.945313,-0.740234 -0.05078,-0.333985 -0.08008,-0.458984 -0.08984,-0.451172 -0.09961,-0.443359 -0.109375,-0.4375 L 47.164062,16.015625 47.033203,15.591797 46.894531,15.175781 46.746094,14.765625 46.587891,14.365234 46.421875,13.96875 46.246094,13.582031 46.0625,13.203125 Z m -28.070313,0.222656 -0.154297,0.318359 -0.175781,0.386719 -0.166016,0.396484 -0.158203,0.400391 -0.148437,0.410156 -0.138672,0.416016 -0.128906,0.423828 -0.121094,0.431641 -0.109375,0.4375 -0.09961,0.443359 -0.08984,0.451172 -0.08008,0.458984 -0.07031,0.462891 -0.01367,0.111328 4.960938,0.623047 0.0059,-0.05273 0.05273,-0.345703 0.05859,-0.339843 0.06641,-0.330079 0.07227,-0.324218 0.08008,-0.316407 0.08594,-0.310546 0.09375,-0.300782 0.09766,-0.296875 0.103516,-0.287109 0.111328,-0.28125 0.115234,-0.275391 0.123047,-0.269531 0.125,-0.259765 z m 28.457031,5.882812 -0.253906,4.994141 c 1.111947,0.0567 2.20625,0.265205 3.228516,0.626953 h 0.002 c 0.249651,0.08827 0.494944,0.185745 0.734375,0.291016 l 2.011719,-4.578125 c -0.355953,-0.156503 -0.716548,-0.29725 -1.080079,-0.425782 -1.507784,-0.533558 -3.075736,-0.828314 -4.642578,-0.908203 z m -28.939453,0.01172 c -0.385621,0.02364 -0.76261,0.06323 -1.132812,0.111328 h -0.002 c -1.569419,0.204387 -3.116956,0.633329 -4.578125,1.300781 l 2.078125,4.548829 c 0.983579,-0.449293 2.051865,-0.750025 3.146484,-0.892579 0.270709,-0.03517 0.535421,-0.06026 0.794922,-0.07617 z m 38.199219,3.46875 -3.119141,3.90625 c 0.572998,0.457732 1.108625,0.976213 1.59961,1.542969 l 0.208984,0.248047 0.205078,0.253906 0.199219,0.261719 0.193359,0.265625 0.1875,0.271484 0.19336,0.292969 4.173828,-2.753906 -0.22461,-0.339844 -0.253906,-0.367188 -0.263672,-0.361328 -0.271484,-0.355469 -0.28125,-0.347656 -0.277344,-0.330078 -0.0098,-0.01172 C 57.204537,24.01753 56.449793,23.285828 55.625,22.626953 Z M 8.2070313,22.761719 C 7.6814684,23.192978 7.1843673,23.654968 6.71875,24.140625 l -0.00977,0.01172 -0.2949219,0.314453 -0.2988281,0.335937 -0.2871094,0.341797 -0.28125,0.347656 -0.2714844,0.355469 -0.2636719,0.361328 -0.2539062,0.367188 -0.2460938,0.373047 -0.1074218,0.169922 4.234375,2.658203 0.078125,-0.121094 0.1835937,-0.279297 0.1875,-0.271484 0.1933594,-0.265625 0.1992188,-0.261719 0.2050781,-0.253906 0.2089844,-0.248047 0.2148441,-0.240235 0.21875,-0.234375 c 0.332714,-0.347033 0.684549,-0.674091 1.050781,-0.974609 z m 53.0859377,7.685547 -4.621094,1.90625 0.01367,0.03516 0.126953,0.324219 0.121094,0.330078 0.115234,0.333984 0.107422,0.335938 0.103516,0.339843 0.0957,0.341797 0.08984,0.345703 0.08398,0.347657 0.07813,0.349609 0.07227,0.351562 0.06445,0.355469 0.05859,0.355469 0.01172,0.07617 4.947266,-0.72461 -0.01758,-0.121093 -0.07422,-0.445313 -0.08203,-0.445312 -0.08984,-0.441407 -0.09766,-0.439453 -0.105469,-0.439453 -0.113281,-0.435547 -0.123047,-0.433593 -0.128907,-0.429688 -0.138671,-0.427734 -0.146485,-0.425782 -0.154297,-0.421875 -0.164062,-0.417968 z m -58.6718752,0.214843 -0.1113282,0.283203 -0.1542968,0.421875 -0.1464844,0.425782 -0.1386719,0.427734 -0.1289063,0.429688 -0.1230468,0.433593 -0.1132813,0.435547 -0.1054687,0.439453 -0.097656,0.439453 -0.087891,0.431641 -0.00391,0.01367 c -0.075172,0.391264 -0.1437828,0.79332 -0.2011718,1.208984 l 4.953125,0.685547 c 0.041366,-0.299612 0.093795,-0.609026 0.1542968,-0.925781 l 0.076172,-0.375 0.078125,-0.349609 0.083984,-0.347657 0.089844,-0.345703 0.095703,-0.341797 L 6.84375,33.712891 6.9511719,33.376953 7.0664062,33.042969 7.1875,32.712891 7.2792969,32.476562 Z m 60.4179682,9.039063 -5,0.002 v 0.03125 l -0.0059,0.359375 -0.01367,0.359375 L 58,40.810547 l -0.02539,0.357422 -0.0332,0.355468 -0.03906,0.353516 -0.04492,0.351563 -0.05273,0.349609 -0.06055,0.345703 -0.06445,0.345703 -0.07227,0.341797 -0.07813,0.337891 -0.02344,0.08984 4.847657,1.226563 0.03516,-0.138672 0.101562,-0.4375 0.0918,-0.4375 0.08398,-0.441406 0.07617,-0.44336 0.06641,-0.445312 0.05859,-0.445313 0.04883,-0.447265 0.04102,-0.449219 0.0332,-0.449219 0.02539,-0.451172 0.01563,-0.449218 0.0078,-0.451172 z m -57.0761714,0.138672 -4.99999997,0.08984 0.005859,0.300782 0.015625,0.449218 0.0253906,0.451172 0.033203,0.449219 0.041016,0.449219 0.048828,0.447265 0.058594,0.445313 0.066406,0.445312 0.076172,0.44336 0.082031,0.429687 0.00195,0.01367 c 0.07978,0.396243 0.1710568,0.801426 0.2792969,1.212891 l 4.835941,-1.273433 C 6.4551985,43.896832 6.3850184,43.586999 6.3203125,43.265625 L 6.2558594,42.923828 6.1953125,42.578125 6.1425781,42.228516 6.0976562,41.876953 6.0585937,41.523437 6.0253906,41.167969 6,40.810547 5.9804687,40.453125 5.9667969,40.09375 Z m 50.5527344,7.039062 -0.123047,0.25586 -0.146484,0.292968 -0.154297,0.289063 L 55.931641,48 l -0.166016,0.279297 -0.171875,0.271484 -0.191406,0.285156 -0.0059,0.0078 c -0.368495,0.533686 -0.773394,1.03348 -1.21289,1.488281 l 3.59375,3.47461 c 0.651807,-0.674506 1.238345,-1.398854 1.759765,-2.158204 l 0.0098,-0.01367 0.238281,-0.359375 0.240235,-0.378907 0.228515,-0.382812 0.220703,-0.390625 0.210938,-0.394531 0.201172,-0.398438 0.144531,-0.308594 z M 7.5644531,47.044922 3.046875,49.1875 3.113281,49.330078 3.3144528,49.728516 3.5253903,50.123047 3.738281,50.5 l 0.00781,0.01172 c 0.7199803,1.239486 1.5936877,2.407715 2.6269531,3.449218 L 9.921875,50.439453 C 9.2149476,49.72689 8.5951315,48.903278 8.0742188,48.007812 c -0.0014,-0.0024 -0.00446,-0.0035 -0.00586,-0.0059 L 7.9082031,47.716797 7.7539062,47.427734 7.6074219,47.134766 Z m 44.3984379,5.058594 c -0.926503,0.557767 -1.958497,0.977472 -3.03711,1.25 -0.265486,0.0669 -0.526701,0.124832 -0.783203,0.171875 l 0.900391,4.917968 c 0.377605,-0.06925 0.745921,-0.149573 1.105468,-0.240234 l 0.002,-0.002 c 1.526808,-0.385771 3.013444,-0.985371 4.390625,-1.814453 z m -39.794922,0.07617 -2.5234377,4.316407 c 0.3262321,0.190813 0.6531417,0.366337 0.9804687,0.527343 1.448004,0.711692 2.982545,1.187756 4.535156,1.457032 l 0.853516,-4.925782 C 14.896146,53.36087 13.817808,53.019663 12.832031,52.535155 12.600815,52.421424 12.379066,52.303157 12.167969,52.179686 Z"
         id="path128" />
      <path
         id="path131"
         style="overflow:visible;fill:none;fill-rule:evenodd;stroke-width:5;stroke-linecap:square;stroke-dashoffset:5;stroke-opacity:0.996078;paint-order:fill markers stroke"
         d="M 0,1e-6 H 64 V 63.999999 H 0 Z" />
    </g>
  </g>
</svg>
