<?xml version="1.0" encoding="UTF-8" standalone="no"?>
<!-- Created with Inkscape (http://www.inkscape.org/) -->

<svg
   width="64"
   height="63.999996"
   viewBox="0 0 64 63.999996"
   version="1.1"
   id="svg5"
   xmlns="http://www.w3.org/2000/svg"
   xmlns:svg="http://www.w3.org/2000/svg">
  <defs
     id="defs2" />
  <g
     id="g244"
     style="display:inline">
    <g
       id="g204"
       style="display:inline">
      <g
         id="path202">
        <path
           style="color:#000000;fill:#000000;fill-opacity:0;stroke-dasharray:4.91878, 3.00046;stroke-dashoffset:0.491878;-inkscape-stroke:none"
           d="m 18.573222,7.4593913 c -21.0992092,0 -19.18110099,34.6455697 0,34.6455697 0,19.24753 26.85355,19.24753 26.85355,0 19.181107,0 21.099218,-34.6455697 0,-34.6455697"
           id="path354" />
        <path
           style="color:#000000;fill:#ffff80;stroke-dasharray:4.91878, 3.00046;stroke-dashoffset:0.491878;-inkscape-stroke:none"
           d="m 18.574219,5 c -1.664322,-1.54e-4 -3.362534,0.1917674 -5.029297,0.6484375 l 1.300781,4.7441405 c 1.181317,-0.323664 2.441103,-0.4747282 3.726563,-0.4746092 z m 27.083984,0.00195 -0.04297,4.9179688 c 0.21353,0.00188 0.432746,0.010006 0.65625,0.021484 1.192233,0.06219 2.35487,0.2622402 3.439453,0.6171872 l 1.53125,-4.675781 C 49.692345,5.3756021 48.100675,5.1113658 46.527344,5.0292969 h -0.002 C 46.241687,5.0146955 45.952606,5.0045413 45.658203,5.0019531 Z M 10.265625,6.9335937 C 8.8798095,7.6592967 7.6146891,8.5921989 6.5097656,9.6875 6.2376046,9.9571651 5.972431,10.235393 5.71875,10.525391 l 3.703125,3.240234 c 0.1752474,-0.200336 0.3582195,-0.395124 0.5488281,-0.583984 v -0.002 C 10.73145,12.425415 11.605014,11.784235 12.546875,11.291016 Z m 44.189453,0.4023438 -2.5,4.2363285 c 0.160781,0.09495 0.324672,0.198226 0.492188,0.310547 0.939595,0.630401 1.787446,1.422528 2.501953,2.326171 l 3.857422,-3.050781 C 57.786685,9.8682566 56.571147,8.7271567 55.1875,7.7988281 h -0.002 C 54.952533,7.6425903 54.709551,7.486218 54.455078,7.3359375 Z m -50.7578124,6.0449215 -0.1367187,0.242188 -0.2089844,0.392578 -0.2011719,0.398438 -0.1914062,0.404296 -0.1816406,0.40625 -0.171875,0.41211 -0.1640625,0.414062 -0.1542969,0.417969 -0.1445313,0.421875 -0.1367187,0.425781 -0.1269532,0.427735 -0.1191406,0.43164 -0.09375,0.375 4.7675781,1.207031 0.083984,-0.326171 0.089844,-0.333985 0.099609,-0.330078 L 6.8105469,18.441406 6.921875,18.121094 7.0390625,17.802734 7.1621094,17.488281 7.2910156,17.179687 7.4277344,16.875 7.5703125,16.574219 7.71875,16.279297 7.8730469,15.990234 7.9804687,15.798828 Z m 56.9941404,0.720704 -4.394531,2.210937 0.132812,0.261719 0.142579,0.300781 0.136718,0.304687 0.128907,0.308594 0.123046,0.314453 0.117188,0.31836 0.111328,0.320312 0.103516,0.326172 0.09961,0.330078 0.08984,0.330078 c 0.08095,0.308601 0.152652,0.607115 0.210937,0.896485 l 4.822266,-0.970703 c -0.08171,-0.405678 -0.176462,-0.796689 -0.275391,-1.173829 l -0.0039,-0.01367 -0.115234,-0.421875 -0.126953,-0.427735 -0.136719,-0.425781 -0.144531,-0.421875 -0.154297,-0.417969 -0.164063,-0.414062 -0.171875,-0.41211 -0.18164,-0.40625 -0.191407,-0.404296 z M 1.109375,21.865234 c -0.040776,0.406991 -0.066115,0.80177 -0.083984,1.179688 v 0.01367 l -0.015625,0.427734 v 0.01172 c -0.0121957,0.450761 -0.0124598,0.901406 0,1.351562 0.012481,0.450834 0.037298,0.902277 0.074219,1.351563 v 0.0098 l 0.041016,0.439454 0.048828,0.447265 0.029297,0.234375 4.8789062,-0.625 -0.023437,-0.189453 -0.039063,-0.359375 -0.033203,-0.359375 v -0.0059 l -0.00195,-0.01758 c -0.028586,-0.352936 -0.0488,-0.70679 -0.058594,-1.060547 -0.00978,-0.353238 -0.00912,-0.707861 0,-1.060547 v -0.02344 l 0.013672,-0.353515 c 0.015242,-0.322352 0.035334,-0.629275 0.064453,-0.919922 z m 61.845703,0.810547 -4.912109,0.269531 0.01758,0.326172 0.01367,0.359375 0.0059,0.382813 c 0.0027,0.353913 -0.0033,0.708502 -0.01953,1.0625 -0.01657,0.361524 -0.04391,0.721864 -0.08008,1.082031 -0.03615,0.360012 -0.0811,0.718969 -0.136719,1.076172 l -0.01367,0.07813 4.853516,0.800781 0.01758,-0.111328 0.002,-0.0098 c 0.06939,-0.44565 0.126843,-0.893347 0.171875,-1.341796 0.04505,-0.448644 0.07896,-0.899108 0.09961,-1.34961 0.02063,-0.450041 0.02738,-0.900599 0.02344,-1.351562 V 23.9375 l -0.0078,-0.439453 -0.01563,-0.449219 z m -56.3515624,6.66211 -4.7578125,1.24414 0.011719,0.05078 0.1230468,0.431641 0.1289063,0.429688 0.1386719,0.427734 0.1464844,0.423828 0.1542968,0.421875 0.1621094,0.417969 0.171875,0.414062 0.1777344,0.410157 0.1875,0.404296 0.1953125,0.402344 0.203125,0.398438 0.2128906,0.392578 0.066406,0.115234 L 8.203125,33.294922 8.1621094,33.224609 8,32.923828 7.84375,32.619141 7.6933594,32.310547 7.5488281,31.996094 7.4101562,31.677734 7.2773437,31.353516 7.1503906,31.027344 7.0292969,30.697266 6.9140625,30.363281 6.8046875,30.027344 6.7011719,29.685547 6.6054687,29.34375 Z m 50.6230464,0.583984 -0.03125,0.105469 -0.109375,0.335937 -0.115234,0.333985 -0.121094,0.330078 -0.126953,0.326172 -0.132812,0.324218 -0.138672,0.31836 -0.144531,0.314453 L 56.15625,32.619141 56,32.923828 l -0.162109,0.300781 -0.167969,0.294922 -0.171875,0.28711 4.166015,2.615234 0.02734,-0.04297 0.228516,-0.382812 0.220703,-0.388672 0.212891,-0.392578 0.203125,-0.398438 0.195312,-0.402344 0.1875,-0.404296 0.177734,-0.410157 0.171875,-0.414062 0.16211,-0.417969 0.154297,-0.421875 0.146484,-0.423828 0.138672,-0.427734 0.04492,-0.148438 z m -47.5585932,5.523437 -3.8339844,3.082032 0.025391,0.0293 0.2773437,0.330078 0.00977,0.0098 c 1.1453269,1.323105 2.4969328,2.492985 4.0371099,3.41211 l 2.521484,-4.22461 c -1.050656,-0.626996 -2.01228,-1.450231 -2.8398439,-2.40625 z m 44.2851562,0.4375 -0.0332,0.03711 -0.21875,0.234375 -0.226563,0.230469 c -3.77e-4,3.74e-4 -0.0016,-3.74e-4 -0.002,0 -0.799948,0.792922 -1.704357,1.468005 -2.675781,1.980468 l 2.294922,4.351563 c 1.429215,-0.753966 2.719216,-1.722955 3.845703,-2.839844 l 0.01172,-0.0098 0.302734,-0.308593 0.304688,-0.326172 0.07227,-0.08203 z m -39.023437,3.210938 -1.515625,4.679687 c 0.890047,0.288262 1.810795,0.308533 2.722656,0.4375 l -0.01758,-1.576171 4.917968,-0.164063 -0.03125,-2.808594 -2.623047,-0.01758 c -1.188558,-0.01618 -2.360931,-0.19705 -3.453124,-0.550781 z m 33.591796,0.160156 c -0.988166,0.263871 -2.034049,0.392813 -3.09375,0.392578 l -2.433593,-0.002 -0.03125,2.853516 -0.01367,0.386719 -0.01172,0.232421 3.742187,0.208985 -1.253906,1.238281 c 1.452544,3.22e-4 2.924626,-0.171954 4.365235,-0.556641 z m -27.226562,5.798828 -4.822266,0.962891 0.07422,0.375 0.09961,0.443359 0.109375,0.435547 0.119141,0.429688 0.130859,0.423828 0.138672,0.414062 0.146485,0.410157 0.158203,0.40039 0.166015,0.394531 0.175782,0.384766 0.183593,0.378906 0.191407,0.371094 0.201171,0.365234 0.07813,0.132813 4.242188,-2.490234 -0.04492,-0.07813 -0.138672,-0.25 -0.132812,-0.25586 -0.126953,-0.261719 -0.123047,-0.269531 -0.115235,-0.27539 -0.111328,-0.283204 -0.105469,-0.289062 -0.09766,-0.296875 -0.09375,-0.302734 -0.08594,-0.310547 -0.08008,-0.31836 -0.07227,-0.324218 z m 21.27539,0.626953 -0.002,0.01367 -0.08008,0.31836 -0.08594,0.310547 -0.09375,0.302734 -0.09766,0.296875 -0.105468,0.289062 -0.111328,0.283204 -0.115235,0.27539 -0.123047,0.269531 -0.126953,0.261719 -0.132812,0.25586 -0.138672,0.25 -0.142578,0.24414 -0.146485,0.236328 -0.05664,0.08398 4.103515,2.71289 0.0918,-0.138672 0.216797,-0.347656 0.208984,-0.355469 0.201172,-0.365234 0.191407,-0.371094 0.183593,-0.378906 0.175782,-0.384766 0.166015,-0.394531 0.158203,-0.40039 0.146485,-0.410157 0.138672,-0.414062 0.130859,-0.423828 0.119141,-0.429688 0.109375,-0.435547 0.01563,-0.07422 z m -18.439453,5.134766 -3.535156,3.419922 0.195313,0.201172 0.279296,0.273437 0.285157,0.265625 0.291015,0.257813 0.294922,0.248047 0.302735,0.240234 0.30664,0.232422 0.310547,0.222656 0.316406,0.214844 0.31836,0.205078 0.326172,0.197266 0.328125,0.189453 0.332031,0.179687 0.333984,0.171875 0.339844,0.164063 0.189453,0.08398 2.025391,-4.480469 -0.134766,-0.0625 L 27.003906,52.92773 26.775391,52.810543 26.548828,52.687496 26.326172,52.55859 26.105469,52.425777 25.888672,52.285152 25.675781,52.140621 25.464844,51.99023 25.257812,51.83398 25.054687,51.671871 24.855469,51.505855 24.660156,51.332027 24.46875,51.154293 24.28125,50.968746 Z m 15.330078,0.404297 -0.121093,0.113281 -0.195313,0.173828 -0.199219,0.166016 -0.203125,0.162109 -0.207031,0.15625 -0.210937,0.150391 -0.212891,0.144531 -0.216797,0.140625 -0.220703,0.132813 -0.222656,0.128906 -0.226563,0.123047 -0.228515,0.117187 -0.259766,0.125 c -0.211884,0.09792 -0.419371,0.186393 -0.621094,0.263672 l 1.759766,4.59375 c 0.336102,-0.128759 0.657847,-0.268313 0.966797,-0.412109 l 0.01367,-0.0059 0.328125,-0.158203 0.333984,-0.171875 0.332031,-0.179687 0.328125,-0.189453 0.326172,-0.197266 0.31836,-0.205078 0.316406,-0.214844 0.310547,-0.222656 0.30664,-0.232422 0.302735,-0.240234 0.294922,-0.248047 0.291015,-0.257813 0.169922,-0.15625 z m -9.757812,2.630859 -0.988281,4.81836 c 0.479092,0.09831 0.959605,0.174313 1.439453,0.228515 0.367793,0.04144 0.735976,0.07132 1.105469,0.08789 0.36946,0.01657 0.739673,0.02 1.109375,0.01172 0.369717,-0.0083 0.738915,-0.02935 1.107421,-0.0625 l 0.01563,-0.002 0.353516,-0.03516 0.367188,-0.04492 0.246093,-0.03711 -0.716797,-4.865234 -0.189453,0.02734 -0.257812,0.03125 -0.285156,0.0293 c -0.24934,0.02183 -0.499603,0.03541 -0.75,0.04102 -0.259525,0.0058 -0.520005,0.0038 -0.779297,-0.0078 C 31.221161,54.05865 30.96277,54.03682 30.705083,54.00778 30.365694,53.96944 30.031688,53.917 29.70313,53.849577 Z"
           id="path355" />
      </g>
      <path
         d="M 16.374754,21.665498 32,29.478118 47.625246,21.665498 v 3.12505 L 32,34.556328 16.374754,24.790548 Z"
         stroke-width="5"
         stroke="none"
         fill="#000000"
         id="path203"
         style="fill:#ffff80;fill-opacity:1;stroke-width:5;stroke-miterlimit:4;stroke-dasharray:none" />
      <path
         id="path204"
         style="overflow:visible;fill:none;fill-rule:evenodd;stroke-width:5;stroke-linecap:square;stroke-dashoffset:5;stroke-opacity:0.996078;paint-order:fill markers stroke"
         d="M 0,1e-6 H 64 V 63.999999 H 0 Z" />
    </g>
  </g>
</svg>
