<?xml version="1.0" encoding="UTF-8" standalone="no"?>
<!-- Created with Inkscape (http://www.inkscape.org/) -->

<svg
   width="64"
   height="63.999996"
   viewBox="0 0 64 63.999996"
   version="1.1"
   id="svg5"
   xmlns="http://www.w3.org/2000/svg"
   xmlns:svg="http://www.w3.org/2000/svg">
  <defs
     id="defs2" />
  <g
     id="g244"
     style="display:inline">
    <g
       id="g149"
       style="display:inline">
      <path
         style="color:#000000;display:inline;fill:#ff8080;stroke-dasharray:5.14264, 3.59985;stroke-dashoffset:1.54279;-inkscape-stroke:none"
         d="M 32,1.0625 28.267578,4.1816406 31.564453,8.1269531 32,7.7636719 32.212891,7.9433594 35.511719,3.9960938 Z m 6.273437,5.2421875 -3.298828,3.9472655 3.945313,3.296875 3.298828,-3.9453124 z m -12.767578,0.1855469 -3.947265,3.2988281 3.298828,3.9453125 3.945312,-3.298828 z m 19.47461,5.4218746 -3.296875,3.945313 3.945312,3.298828 3.296875,-3.945312 z m -26.183594,0.185547 -3.945312,3.298828 3.298828,3.945313 3.945312,-3.298828 z m 32.892578,5.421875 -3.298828,3.945313 3.945312,3.298828 3.298829,-3.945313 z m -39.599609,0.185547 -3.9453127,3.296875 3.2968747,3.947266 3.947266,-3.298828 z m 46.30664,5.421875 -3.298828,3.945313 1.259766,1.052734 v 1.097656 H 61.5 V 25.720703 Z M 5.3828125,23.3125 2.5,25.720703 v 3.791016 H 7.6425781 V 28.125 l 1.0371094,-0.867188 z m 50.9746095,9.509766 v 5.142578 H 61.5 V 32.822266 Z M 2.5,33.111328 v 5.142578 h 5.1425781 v -5.142578 z m 53.857422,8.453125 v 5.142578 H 61.5 V 41.564453 Z M 2.5,41.853516 v 5.142578 h 5.1425781 v -5.142578 z m 53.857422,8.453125 v 5.142578 H 61.5 V 50.306641 Z M 2.5,50.595703 v 5.142578 h 5.1425781 v -5.142578 z m 53.857422,8.453125 V 62.9375 H 61.5 V 59.048828 Z M 2.5,59.337891 V 62.9375 h 5.1425781 v -3.599609 z"
         id="path257" />
      <path
         d="m 27.087261,50.610952 v -4.962921 l 2.456369,-2.48146 V 15.870508 L 32,13.389048 l 2.45637,2.48146 v 27.296063 l 2.456369,2.48146 v 4.962921 L 32,45.648031 Z"
         stroke-width="5"
         stroke="#000000"
         fill="#ffff80"
         id="path148"
         style="display:inline;fill:#ff8080;fill-opacity:1;stroke:none;stroke-width:4.92477;stroke-miterlimit:4;stroke-dasharray:none" />
      <path
         id="path149"
         style="overflow:visible;fill:none;fill-rule:evenodd;stroke-width:5;stroke-linecap:square;stroke-dashoffset:5;stroke-opacity:0.996078;paint-order:fill markers stroke"
         d="M 0,1e-6 H 64 V 63.999999 H 0 Z" />
    </g>
  </g>
</svg>
