<?xml version="1.0" encoding="UTF-8" standalone="no"?>
<!-- Created with Inkscape (http://www.inkscape.org/) -->

<svg
   width="64"
   height="63.999996"
   viewBox="0 0 64 63.999996"
   version="1.1"
   id="svg5"
   xmlns="http://www.w3.org/2000/svg"
   xmlns:svg="http://www.w3.org/2000/svg">
  <defs
     id="defs2" />
  <g
     id="g244"
     style="display:inline">
    <g
       id="g146"
       style="display:inline">
      <path
         style="color:#000000;display:inline;fill:#ff8080;stroke-dasharray:5.14264, 3.08558;stroke-dashoffset:5.6569;-inkscape-stroke:none"
         d="M 2.5,3.6328125 V 8.7753906 H 7.6425781 V 3.6328125 Z M 56.357422,3.921875 V 9.0644531 H 61.5 V 3.921875 Z M 2.5,11.861328 v 5.142578 h 5.1425781 v -5.142578 z m 53.857422,0.289063 v 5.142578 H 61.5 V 12.150391 Z M 2.5,20.089844 v 5.142578 h 5.1425781 v -5.142578 z m 53.857422,0.289062 v 5.142578 H 61.5 V 20.378906 Z M 2.5,28.318359 v 5.142578 h 5.1425781 v -5.142578 z m 53.857422,0.289063 V 33.75 H 61.5 V 28.607422 Z M 7.6425781,35.875 v 0.671875 H 2.5 v 1.732422 L 6.9609375,42.007812 10.257813,38.0625 Z m 48.7148439,0 -2.837891,2.373047 3.298828,3.945312 L 61.5,38.279297 v -1.44336 h -5.142578 z m -43.730469,4.166016 -3.298828,3.945312 3.945313,3.298828 3.298828,-3.945312 z m 38.525391,0.185546 -3.945313,3.296875 3.296875,3.947266 3.947266,-3.298828 z m -32.212891,5.091797 -3.298828,3.945313 3.945312,3.298828 3.298829,-3.947266 z m 25.900391,0.185547 -3.947266,3.296875 3.298828,3.947266 3.945313,-3.298828 z m -19.587891,5.091797 -3.298828,3.945313 3.947266,3.298828 3.296875,-3.947266 z m 13.273438,0.185547 -3.945313,3.296875 3.298828,3.945312 3.945313,-3.296875 z M 31.564453,55.873047 28.267578,59.818359 32,62.9375 35.511719,60.003906 32.212891,56.056641 32,56.236328 Z"
         id="path255" />
      <path
         d="m 27.078033,21.578008 -9.687624,6.64073 9.687624,8.203254 z m 9.765779,0 -9.687624,6.64073 9.687624,8.203254 z m 9.765779,0 -9.687622,6.64073 9.687622,8.203254 z"
         stroke-width="5"
         stroke="#000000"
         fill="#000000"
         id="path145"
         style="display:inline;fill:#ff8080;fill-opacity:1;stroke:none;stroke-width:5;stroke-miterlimit:4;stroke-dasharray:none" />
      <path
         id="path146"
         style="overflow:visible;fill:none;fill-rule:evenodd;stroke-width:5;stroke-linecap:square;stroke-dashoffset:5;stroke-opacity:0.996078;paint-order:fill markers stroke"
         d="M 0,1e-6 H 64 V 63.999999 H 0 Z" />
    </g>
  </g>
</svg>
