<?xml version="1.0" encoding="UTF-8" standalone="no"?>
<!-- Created with Inkscape (http://www.inkscape.org/) -->

<svg
   width="64"
   height="63.999996"
   viewBox="0 0 64 63.999996"
   version="1.1"
   id="svg5"
   xmlns="http://www.w3.org/2000/svg"
   xmlns:svg="http://www.w3.org/2000/svg">
  <defs
     id="defs2" />
  <g
     id="g244"
     style="display:inline">
    <g
       id="g153"
       style="display:inline">
      <path
         style="color:#000000;display:inline;fill:#ff8080;stroke-dasharray:4.87001, 2.92201;stroke-dashoffset:2.92201;-inkscape-stroke:none"
         d="M 30.277344,2.7226563 28.181641,4.8183594 31.625,8.2617188 33.722656,6.1660156 33.376953,5.8222656 35.099609,4.0996094 33.722656,2.7226563 32,4.4453125 Z m 6.888672,3.4433593 -3.44336,3.4433594 3.44336,3.443359 3.443359,-3.443359 z m -11.050782,0.71875 -3.443359,3.4433594 3.443359,3.443359 3.445313,-3.443359 z m 16.560547,4.7910154 -3.443359,3.44336 3.443359,3.443359 3.44336,-3.443359 z m -22.070312,0.71875 -3.44336,3.44336 3.44336,3.443359 3.445312,-3.443359 z m 27.580078,4.791016 -3.44336,3.443359 3.44336,3.44336 3.443359,-3.44336 z m -33.089844,0.71875 -3.443359,3.443359 3.443359,3.44336 3.445313,-3.44336 z m 38.599609,4.791015 -3.443359,3.44336 3.443359,3.443359 3.44336,-3.443359 z m -44.1093745,0.71875 -3.4433594,3.44336 3.4433594,3.443359 3.4453125,-3.443359 z M 59.205078,28.205078 55.761719,31.648437 56.113281,32 56.464844,31.648437 59.908203,35.091797 63,32 Z M 4.0761719,28.923828 1,32 4.8105469,35.810547 8.2539063,32.367187 7.8867187,32 7.5214844,32.367187 Z m 50.3222651,4.791016 -3.443359,3.443359 3.443359,3.443359 3.44336,-3.443359 z m -44.078124,0.71875 -3.4433599,3.443359 3.4433599,3.443359 3.443359,-3.443359 z m 38.568359,4.791015 -3.44336,3.44336 3.44336,3.443359 3.443359,-3.443359 z m -33.058594,0.71875 -3.443359,3.44336 3.443359,3.443359 3.443359,-3.443359 z m 27.548828,4.791016 -3.443359,3.443359 3.443359,3.44336 3.44336,-3.44336 z m -22.039062,0.71875 -3.44336,3.443359 3.44336,3.44336 3.443359,-3.44336 z m 16.529297,4.791016 -3.44336,3.443359 3.44336,3.443359 L 41.3125,53.6875 Z m -11.019532,0.71875 -3.443359,3.443359 3.443359,3.443359 3.44336,-3.443359 z M 32.359375,55.753906 32,56.113281 32.359375,56.472656 28.916016,59.916016 32,63 35.802734,59.197266 Z"
         id="path261" />
      <path
         id="path153"
         style="overflow:visible;fill:none;fill-rule:evenodd;stroke-width:5;stroke-linecap:square;stroke-dashoffset:5;stroke-opacity:0.996078;paint-order:fill markers stroke"
         d="M 0,1e-6 H 64 V 63.999999 H 0 Z" />
    </g>
  </g>
</svg>
