<?xml version="1.0" encoding="UTF-8" standalone="no"?>
<!-- Created with Inkscape (http://www.inkscape.org/) -->

<svg
   width="64"
   height="63.999996"
   viewBox="0 0 64 63.999996"
   version="1.1"
   id="svg5"
   xmlns="http://www.w3.org/2000/svg"
   xmlns:svg="http://www.w3.org/2000/svg">
  <defs
     id="defs2" />
  <g
     id="g244"
     style="display:inline">
    <g
       id="g137"
       style="display:inline">
      <path
         style="color:#000000;display:inline;fill:#ffff80;stroke-dashoffset:5;-inkscape-stroke:none"
         d="m 32,4.6875 c -7.331726,0 -14.673326,5.338701 -15.716797,14.705078 C 11.797549,20.013273 8.0648107,22.281846 5.546875,25.492187 2.6037262,29.244671 1.1020263,34.060431 0.96875,38.875 c -0.13327625,4.814569 1.1056557,9.692768 4.0214844,13.5 2.9158286,3.807232 7.6230546,6.392578 13.5820316,6.392578 v -5 c -4.590618,0 -7.554017,-1.744788 -9.6132816,-4.433594 C 6.89972,46.645178 5.8603098,42.860488 5.9667969,39.013672 6.0732839,35.166856 7.3286429,31.32168 9.4804688,28.578125 11.632295,25.83457 14.529592,24.123047 18.572266,24.123047 h 2.5 v -2.5 C 21.072266,13.161933 26.481217,9.6875 32,9.6875 c 5.518783,0 10.927734,3.474433 10.927734,11.935547 v 2.5 h 2.5 c 4.042675,0 6.939971,1.711523 9.091797,4.455078 2.151827,2.743555 3.407185,6.588731 3.513672,10.435547 0.106487,3.846816 -0.932922,7.631506 -2.992187,10.320312 -2.059265,2.688806 -5.022661,4.433594 -9.613282,4.433594 v 5 c 5.958979,0 10.666202,-2.585346 13.582032,-6.392578 2.915829,-3.807232 4.15476,-8.685431 4.021484,-13.5 C 62.897974,34.060431 61.396275,29.244671 58.453125,25.492187 55.935188,22.281846 52.202452,20.013273 47.716797,19.392578 46.673326,10.026201 39.331726,4.6875 32,4.6875 Z"
         id="path247" />
      <path
         d="m 27.087261,50.610952 v -4.962921 l 2.456369,-2.48146 V 15.870508 L 32,13.389048 l 2.45637,2.48146 v 27.296063 l 2.456369,2.48146 v 4.962921 L 32,45.648031 Z"
         stroke-width="5"
         stroke="#000000"
         fill="#ffff80"
         id="path136"
         style="display:inline;fill:#ffff80;fill-opacity:1;stroke:none;stroke-width:4.92477;stroke-miterlimit:4;stroke-dasharray:none" />
      <path
         id="path137"
         style="overflow:visible;fill:none;fill-rule:evenodd;stroke-width:5;stroke-linecap:square;stroke-dashoffset:5;stroke-opacity:0.996078;paint-order:fill markers stroke"
         d="M 0,1e-6 H 64 V 63.999999 H 0 Z" />
    </g>
  </g>
</svg>
