<?xml version="1.0" encoding="UTF-8" standalone="no"?>
<!-- Created with Inkscape (http://www.inkscape.org/) -->

<svg
   width="64"
   height="63.999996"
   viewBox="0 0 64 63.999996"
   version="1.1"
   id="svg5"
   xmlns="http://www.w3.org/2000/svg"
   xmlns:svg="http://www.w3.org/2000/svg">
  <defs
     id="defs2" />
  <g
     id="g244"
     style="display:inline">
    <g
       id="g141"
       style="display:inline">
      <path
         style="color:#000000;display:inline;fill:#ffff80;-inkscape-stroke:none"
         d="M 32,1 C 27.711567,1 23.39345,2.2178101 20.011719,4.8378906 17.139149,7.0634855 15.117582,10.444011 14.544922,14.544922 10.44401,15.117582 7.0634867,17.139148 4.8378906,20.011719 2.2178087,23.393451 1,27.711566 1,32 c 0,4.288434 1.2178087,8.606549 3.8378906,11.988281 2.2255961,2.872571 5.6061194,4.894137 9.7070314,5.466797 0.57266,4.100911 2.594227,7.481437 5.466797,9.707031 C 23.39345,61.78219 27.711567,63 32,63 c 4.288433,0 8.60655,-1.21781 11.988281,-3.837891 2.87257,-2.225594 4.894137,-5.60612 5.466797,-9.707031 4.10091,-0.57266 7.481437,-2.594226 9.707031,-5.466797 C 61.78219,40.606549 63,36.288433 63,32 63,27.711567 61.78219,23.393451 59.162109,20.011719 56.936515,17.139148 53.555988,15.117582 49.455078,14.544922 48.882418,10.444011 46.860851,7.0634855 43.988281,4.8378906 40.60655,2.2178101 36.288433,1 32,1 Z m 0,4.9121094 c 3.337078,0 6.643067,0.9976336 8.980469,2.8085937 2.337402,1.8109599 3.814453,4.3006859 3.814453,8.0273439 v 2.457031 h 2.457031 c 3.726657,0 6.216384,1.477051 8.027344,3.814453 1.81096,2.337403 2.808594,5.64339 2.808594,8.980469 0,3.337079 -0.997634,6.643066 -2.808594,8.980469 -1.81096,2.337402 -4.300687,3.814453 -8.027344,3.814453 h -2.457031 v 2.457031 c 0,3.726658 -1.477051,6.216384 -3.814453,8.027344 -2.337402,1.81096 -5.643391,2.808594 -8.980469,2.808594 -3.337078,0 -6.643067,-0.997634 -8.980469,-2.808594 -2.337402,-1.81096 -3.814453,-4.300686 -3.814453,-8.027344 v -2.457031 h -2.457031 c -3.72666,0 -6.216383,-1.477051 -8.0273439,-3.814453 C 6.9097419,38.643066 5.9121094,35.337079 5.9121094,32 c 0,-3.337079 0.9976325,-6.643066 2.8085937,-8.980469 1.8109609,-2.337402 4.3006839,-3.814453 8.0273439,-3.814453 h 2.457031 v -2.457031 c 0,-3.726658 1.477051,-6.216384 3.814453,-8.0273439 C 25.356933,6.909743 28.662922,5.9121094 32,5.9121094 Z"
         id="path251" />
      <path
         id="path141"
         style="overflow:visible;fill:none;fill-rule:evenodd;stroke-width:5;stroke-linecap:square;stroke-dashoffset:5;stroke-opacity:0.996078;paint-order:fill markers stroke"
         d="M 0,1e-6 H 64 V 63.999999 H 0 Z" />
    </g>
  </g>
</svg>
