<?xml version="1.0" encoding="UTF-8" standalone="no"?>
<!-- Created with Inkscape (http://www.inkscape.org/) -->

<svg
   width="64"
   height="63.999996"
   viewBox="0 0 64 63.999996"
   version="1.1"
   id="svg5"
   xmlns="http://www.w3.org/2000/svg"
   xmlns:svg="http://www.w3.org/2000/svg">
  <defs
     id="defs2" />
  <g
     id="g244"
     style="display:inline">
    <g
       id="g207"
       style="display:inline">
      <g
         id="path205">
        <path
           style="color:#000000;fill:#000000;fill-opacity:0;-inkscape-stroke:none"
           d="m 18.573222,7.4593913 c -21.0992092,0 -19.18110099,34.6455697 0,34.6455697 0,19.24753 26.85355,19.24753 26.85355,0 19.181107,0 21.099218,-34.6455697 0,-34.6455697"
           id="path352" />
        <path
           style="color:#000000;fill:#ffff80;-inkscape-stroke:none"
           d="M 18.572266,5 C 12.624403,5 7.9303559,7.578805 5.0214844,11.376953 2.1126128,15.175101 0.87670696,20.042901 1.0097656,24.849609 c 0.1330587,4.806709 1.6316378,9.615087 4.5683594,13.359375 2.5182879,3.21079 6.252952,5.477605 10.742187,6.089844 C 17.348038,53.666868 24.678152,59 32,59 c 7.321848,0 14.651962,-5.333132 15.679687,-14.701172 4.489237,-0.612239 8.223899,-2.879054 10.742188,-6.089844 2.936723,-3.744288 4.435301,-8.552666 4.568359,-13.359375 C 63.123293,20.042901 61.887388,15.175101 58.978516,11.376953 56.069643,7.578805 51.375599,5 45.427734,5 v 4.9179688 c 4.601735,0 7.57831,1.7513292 9.644532,4.4492192 2.066222,2.697889 3.108658,6.49298 3.001953,10.347656 -0.106705,3.854675 -1.365184,7.707235 -3.523438,10.458984 -2.158254,2.751749 -5.068146,4.472656 -9.123047,4.472656 h -2.460937 v 2.458985 c 0,8.480002 -5.428609,11.976562 -10.966797,11.976562 -5.538188,0 -10.966797,-3.49656 -10.966797,-11.976562 v -2.458985 h -2.460937 c -4.054899,0 -6.964794,-1.720907 -9.1230472,-4.472656 C 7.2909658,32.422079 6.0324859,28.569519 5.9257812,24.714844 5.8190766,20.860168 6.861513,17.065077 8.9277344,14.367188 10.993956,11.669298 13.970534,9.9179688 18.572266,9.9179688 Z"
           id="path353" />
      </g>
      <path
         d="M 16.374754,21.665498 32,29.478118 47.625246,21.665498 v 3.12505 L 32,34.556328 16.374754,24.790548 Z"
         stroke-width="5"
         stroke="none"
         fill="#000000"
         id="path206"
         style="fill:#ffff80;fill-opacity:1;stroke-width:5;stroke-miterlimit:4;stroke-dasharray:none" />
      <path
         id="path207"
         style="overflow:visible;fill:none;fill-rule:evenodd;stroke-width:5;stroke-linecap:square;stroke-dashoffset:5;stroke-opacity:0.996078;paint-order:fill markers stroke"
         d="M 0,1e-6 H 64 V 63.999999 H 0 Z" />
    </g>
  </g>
</svg>
